<svg width="15" height="15" viewBox="0 0 15 15" fill="none" xmlns="http://www.w3.org/2000/svg">
<path d="M12.5192 9.70664C12.4756 9.75023 12.4239 9.7848 12.367 9.80839C12.3101 9.83198 12.2491 9.84412 12.1875 9.84412C12.1259 9.84412 12.0649 9.83198 12.008 9.80839C11.9511 9.7848 11.8994 9.75023 11.8559 9.70664L7.50002 5.3502L3.14416 9.70664C3.0562 9.7946 2.93691 9.84401 2.81252 9.84401C2.68813 9.84401 2.56883 9.7946 2.48088 9.70664C2.39292 9.61869 2.34351 9.49939 2.34351 9.375C2.34351 9.25061 2.39292 9.13132 2.48088 9.04336L7.16838 4.35586C7.21191 4.31228 7.26361 4.2777 7.32051 4.25412C7.37742 4.23053 7.43842 4.21838 7.50002 4.21838C7.56162 4.21838 7.62261 4.23053 7.67952 4.25412C7.73643 4.2777 7.78812 4.31228 7.83166 4.35586L12.5192 9.04336C12.5627 9.0869 12.5973 9.13859 12.6209 9.1955C12.6445 9.2524 12.6566 9.3134 12.6566 9.375C12.6566 9.4366 12.6445 9.4976 12.6209 9.55451C12.5973 9.61141 12.5627 9.66311 12.5192 9.70664Z" fill="#052533"/>
</svg>
