<svg width="15" height="15" viewBox="0 0 15 15" fill="none" xmlns="http://www.w3.org/2000/svg">
<path d="M12.5192 5.95663L7.83166 10.6441C7.78812 10.6877 7.73643 10.7223 7.67952 10.7459C7.62261 10.7695 7.56162 10.7816 7.50002 10.7816C7.43842 10.7816 7.37742 10.7695 7.32051 10.7459C7.26361 10.7223 7.21191 10.6877 7.16838 10.6441L2.48088 5.95663C2.39292 5.86867 2.34351 5.74938 2.34351 5.62499C2.34351 5.5006 2.39292 5.3813 2.48088 5.29335C2.56883 5.20539 2.68813 5.15598 2.81252 5.15598C2.93691 5.15598 3.0562 5.20539 3.14416 5.29335L7.50002 9.64979L11.8559 5.29335C11.8994 5.24979 11.9511 5.21525 12.008 5.19168C12.0649 5.16811 12.1259 5.15598 12.1875 5.15598C12.2491 5.15598 12.3101 5.16811 12.367 5.19168C12.4239 5.21525 12.4756 5.24979 12.5192 5.29335C12.5627 5.3369 12.5973 5.3886 12.6208 5.4455C12.6444 5.50241 12.6565 5.56339 12.6565 5.62499C12.6565 5.68658 12.6444 5.74757 12.6208 5.80447C12.5973 5.86137 12.5627 5.91308 12.5192 5.95663Z" fill="#052533"/>
</svg>
