<svg width="30" height="30" viewBox="0 0 30 30" fill="none" xmlns="http://www.w3.org/2000/svg">
<path d="M24.1008 22.7743C24.1879 22.8614 24.257 22.9648 24.3041 23.0786C24.3512 23.1924 24.3755 23.3144 24.3755 23.4375C24.3755 23.5607 24.3512 23.6827 24.3041 23.7965C24.257 23.9103 24.1879 24.0137 24.1008 24.1008C24.0137 24.1879 23.9102 24.257 23.7964 24.3042C23.6826 24.3513 23.5607 24.3756 23.4375 24.3756C23.3143 24.3756 23.1923 24.3513 23.0785 24.3042C22.9647 24.257 22.8613 24.1879 22.7742 24.1008L15 16.3254L7.22575 24.1008C7.04984 24.2767 6.81125 24.3756 6.56247 24.3756C6.31369 24.3756 6.0751 24.2767 5.89919 24.1008C5.72328 23.9249 5.62445 23.6863 5.62445 23.4375C5.62445 23.1888 5.72328 22.9502 5.89919 22.7743L13.6746 15L5.89919 7.22581C5.72328 7.0499 5.62445 6.81131 5.62445 6.56253C5.62445 6.31375 5.72328 6.07516 5.89919 5.89925C6.0751 5.72334 6.31369 5.62451 6.56247 5.62451C6.81125 5.62451 7.04984 5.72334 7.22575 5.89925L15 13.6746L22.7742 5.89925C22.9501 5.72334 23.1887 5.62451 23.4375 5.62451C23.6863 5.62451 23.9248 5.72334 24.1008 5.89925C24.2767 6.07516 24.3755 6.31375 24.3755 6.56253C24.3755 6.81131 24.2767 7.0499 24.1008 7.22581L16.3254 15L24.1008 22.7743Z" fill="#074058"/>
</svg>
