<svg width="30" height="30" viewBox="0 0 30 30" fill="none" xmlns="http://www.w3.org/2000/svg">
<g id="Quote Icon">
<path id="&#226;&#128;&#156;" d="M12.6725 24.6H4.36084V14.2935C4.36084 11.5229 4.91495 9.41731 6.02318 7.97662C7.24223 6.48051 9.29244 5.62164 12.1738 5.39999V10.3039C11.1764 10.3039 10.3453 10.7195 9.68032 11.5506C9.34785 11.9939 9.18162 12.8528 9.18162 14.1273V15.7065H12.6725V24.6ZM25.6388 24.6H17.3271V14.2935C17.3271 11.5229 17.8258 9.50043 18.8232 8.22597C20.153 6.56363 22.2587 5.62164 25.1401 5.39999V10.3039C23.4223 10.3039 22.4526 11.1628 22.231 12.8805C22.1756 13.1022 22.1479 13.5177 22.1479 14.1273V15.7065H25.6388V24.6Z" fill="#E59673"/>
</g>
</svg>
